<?xml version="1.0" standalone="no"?>
<!DOCTYPE svg PUBLIC "-//W3C//DTD SVG 20010904//EN"
 "http://www.w3.org/TR/2001/REC-SVG-20010904/DTD/svg10.dtd">
<svg version="1.0" xmlns="http://www.w3.org/2000/svg"
 width="466.000000pt" height="460.000000pt" viewBox="0 0 466.000000 460.000000"
 preserveAspectRatio="xMidYMid meet">

<g transform="translate(0.000000,460.000000) scale(0.100000,-0.100000)"
fill="#000000" stroke="none">
<path d="M2132 4590 c-948 -92 -1728 -705 -2016 -1585 -79 -242 -108 -430
-109 -695 -1 -225 16 -362 68 -565 48 -185 136 -415 159 -415 6 0 27 10 46 22
19 12 49 21 65 20 17 0 24 2 17 5 -24 10 29 45 58 38 14 -4 44 -9 68 -12 41
-5 42 -4 42 23 0 16 4 24 8 17 4 -6 7 352 7 795 0 880 4 942 60 1136 60 207
195 396 370 516 123 84 311 148 502 171 57 6 351 13 699 16 656 6 970 -4 1126
-36 370 -75 622 -294 738 -639 60 -180 63 -217 68 -992 5 -935 -6 -1088 -97
-1309 -68 -164 -222 -343 -371 -432 -126 -75 -360 -149 -468 -149 -17 0 -34
-5 -38 -12 -5 -8 2 -9 24 -5 33 7 54 -9 31 -24 -10 -6 -9 -9 6 -14 38 -12 50
-22 53 -44 2 -11 9 -21 16 -21 17 0 42 -29 51 -60 4 -13 14 -30 21 -37 7 -8
11 -20 8 -28 -9 -22 39 -19 89 6 239 120 534 362 714 584 678 839 679 2019 3
2865 -91 114 -293 309 -410 397 -316 236 -676 386 -1065 444 -153 22 -411 31
-543 19z"/>
<path d="M1590 3740 c-262 -18 -415 -80 -541 -218 -105 -114 -154 -264 -170
-521 -13 -192 -5 -1448 9 -1526 5 -27 11 -41 12 -30 2 11 4 25 5 30 2 6 4 15
5 20 1 6 6 -3 10 -20 l8 -30 1 28 c1 20 6 27 21 27 11 0 20 5 20 10 0 6 5 10
10 10 6 0 10 -8 10 -17 0 -16 11 -18 98 -17 53 0 112 4 130 8 27 7 32 6 32 -9
0 -16 12 -17 160 -10 115 5 160 4 160 -4 0 -6 -19 -12 -42 -12 l-43 -2 45 -7
c69 -12 144 -35 173 -55 24 -16 27 -16 27 -1 0 23 11 20 48 -13 30 -28 36 -27
33 9 0 10 1 11 5 3 3 -7 17 -13 30 -13 13 0 24 -4 24 -10 0 -5 9 -10 21 -10
12 0 23 -8 26 -20 5 -17 14 -20 59 -20 33 0 54 -4 54 -11 0 -6 7 -9 15 -5 8 3
14 2 13 -2 -4 -21 17 -42 43 -42 16 0 29 -4 29 -10 0 -5 19 -10 43 -10 28 0
50 -6 63 -19 11 -10 37 -21 57 -25 21 -4 35 -11 32 -16 -3 -5 6 -12 20 -16 14
-3 25 -10 25 -14 0 -4 8 -11 18 -14 38 -14 64 -34 50 -39 -9 -4 -10 -6 0 -6 6
-1 12 -8 12 -16 0 -11 11 -15 40 -15 22 0 40 -4 40 -10 0 -5 22 -19 50 -32 28
-13 50 -28 50 -35 0 -12 102 -63 126 -63 8 0 14 -7 14 -15 0 -8 5 -15 10 -15
6 0 10 -9 10 -20 0 -16 -8 -20 -62 -23 -35 -2 11 -4 102 -5 408 -5 597 45 750
198 84 84 126 158 160 280 39 142 44 270 44 970 0 831 -8 924 -94 1105 -44 91
-117 174 -203 229 -67 43 -203 90 -307 107 -89 14 -1410 22 -1590 9z m1786
-305 c33 -17 60 -40 83 -74 32 -47 33 -53 30 -123 -4 -62 -9 -79 -34 -114 -43
-60 -88 -86 -161 -92 -79 -6 -142 22 -185 81 -59 81 -62 170 -8 250 60 91 177
121 275 72z m-802 -260 c337 -99 576 -356 653 -699 23 -106 21 -280 -6 -391
-43 -181 -168 -387 -300 -495 -202 -165 -462 -243 -705 -211 -176 24 -318 82
-453 187 -176 137 -289 321 -335 544 -26 123 -21 307 12 420 86 303 307 536
602 634 113 38 169 45 313 41 104 -2 148 -9 219 -30z m-1421 -1682 c-13 -2
-33 -2 -45 0 -13 2 -3 4 22 4 25 0 35 -2 23 -4z m847 -87 c0 -2 -7 -7 -16 -10
-8 -3 -12 -2 -9 4 6 10 25 14 25 6z m-27 -63 c-7 -2 -21 -2 -30 0 -10 3 -4 5
12 5 17 0 24 -2 18 -5z"/>
<path d="M2255 2880 c-231 -26 -433 -201 -500 -434 -21 -72 -24 -210 -6 -286
25 -105 79 -199 161 -280 86 -87 164 -132 276 -160 355 -91 705 165 731 535
26 365 -294 666 -662 625z"/>
<path d="M552 1390 c0 -19 2 -27 5 -17 2 9 2 25 0 35 -3 9 -5 1 -5 -18z"/>
<path d="M901 1394 c0 -11 3 -14 6 -6 3 7 2 16 -1 19 -3 4 -6 -2 -5 -13z"/>
<path d="M562 1330 c0 -14 2 -19 5 -12 2 6 2 18 0 25 -3 6 -5 1 -5 -13z"/>
<path d="M2395 1110 c3 -5 8 -10 11 -10 2 0 4 5 4 10 0 6 -5 10 -11 10 -5 0
-7 -4 -4 -10z"/>
</g>
</svg>
