<?xml version="1.0" standalone="no"?>
<!DOCTYPE svg PUBLIC "-//W3C//DTD SVG 20010904//EN"
 "http://www.w3.org/TR/2001/REC-SVG-20010904/DTD/svg10.dtd">
<svg version="1.0" xmlns="http://www.w3.org/2000/svg"
 width="2133.000000pt" height="2133.000000pt" viewBox="0 0 2133.000000 2133.000000"
 preserveAspectRatio="xMidYMid meet">

<g transform="translate(0.000000,2133.000000) scale(0.100000,-0.100000)"
fill="#000000" stroke="none">
<path d="M10055 21319 c-1898 -111 -3699 -710 -5275 -1754 -433 -287 -822
-586 -1220 -939 -173 -153 -594 -570 -760 -751 -878 -960 -1572 -2064 -2050
-3259 -426 -1068 -673 -2190 -740 -3370 -13 -230 -13 -932 0 -1162 100 -1756
601 -3397 1493 -4889 342 -572 743 -1119 1201 -1635 153 -173 570 -594 751
-760 960 -878 2064 -1572 3259 -2050 1068 -426 2190 -673 3370 -740 230 -13
932 -13 1162 0 1756 100 3397 601 4889 1493 572 341 1123 746 1635 1201 175
156 596 572 760 751 879 962 1572 2064 2050 3259 426 1068 673 2190 740 3370
13 230 13 932 0 1162 -100 1756 -601 3397 -1493 4889 -342 572 -743 1119
-1201 1635 -153 173 -570 594 -751 760 -960 878 -2064 1572 -3259 2050 -1068
426 -2190 673 -3370 740 -206 12 -984 11 -1191 -1z m-3748 -4338 c213 -40 420
-122 587 -232 102 -67 266 -225 339 -327 79 -109 149 -247 191 -372 132 -398
105 -782 -80 -1140 -70 -135 -135 -223 -249 -336 -199 -197 -471 -336 -772
-394 -403 -78 -824 -30 -1147 132 -401 200 -672 569 -753 1023 -22 124 -21
361 2 490 51 296 176 537 384 746 239 238 552 382 931 429 127 15 439 5 567
-19z m8299 -3820 c261 -35 512 -96 731 -176 137 -51 398 -180 521 -259 759
-484 1231 -1304 1391 -2416 57 -395 54 -256 58 -3052 l4 -2578 -1381 0 -1380
0 0 2303 c0 1498 -4 2351 -10 2442 -53 712 -281 1180 -695 1423 -309 182 -802
220 -1189 91 -233 -77 -466 -237 -633 -431 -188 -220 -324 -490 -370 -738 -17
-89 -18 -252 -20 -2592 l-3 -2498 -1378 0 -1378 0 0 4160 1 4160 1377 0 1378
0 2 -591 3 -591 82 118 c542 784 1217 1174 2158 1248 136 11 585 -4 731 -23z
m-7276 -4321 l0 -4160 -1380 0 -1380 0 0 4160 0 4160 1380 0 1380 0 0 -4160z"/>
</g>
</svg>
